<svg width="385" height="112" viewBox="0 0 385 112" fill="none" xmlns="http://www.w3.org/2000/svg">
<path d="M139.396 47.8166H143.151L152.728 71.9119L162.285 47.8166H166.06L154.174 77.3729H151.242L139.396 47.8166ZM138.172 47.8166H141.485L142.027 65.8425V77.3729H138.172V47.8166ZM163.952 47.8166H167.265V77.3729H163.41V65.8425L163.952 47.8166Z" fill="white"/>
<path d="M172.525 66.6343V66.1672C172.525 64.5843 172.752 63.1155 173.208 61.7627C173.663 60.3954 174.319 59.2115 175.175 58.2099C176.032 57.195 177.069 56.4101 178.287 55.8552C179.506 55.2869 180.871 55.0027 182.383 55.0027C183.909 55.0027 185.281 55.2869 186.499 55.8552C187.731 56.4101 188.775 57.195 189.631 58.2099C190.501 59.2115 191.164 60.3954 191.619 61.7627C192.074 63.1155 192.302 64.5843 192.302 66.1672V66.6343C192.302 68.2178 192.074 69.686 191.619 71.0394C191.164 72.3928 190.501 73.5767 189.631 74.5916C188.775 75.5933 187.737 76.3781 186.52 76.9461C185.315 77.5015 183.949 77.7788 182.424 77.7788C180.897 77.7788 179.526 77.5015 178.307 76.9461C177.09 76.3781 176.045 75.5933 175.175 74.5916C174.319 73.5767 173.663 72.3928 173.208 71.0394C172.752 69.686 172.525 68.2178 172.525 66.6343ZM176.239 66.1672V66.6343C176.239 67.7305 176.366 68.7656 176.621 69.7402C176.875 70.7009 177.257 71.5538 177.765 72.2977C178.287 73.0421 178.936 73.6309 179.713 74.064C180.489 74.4832 181.392 74.6931 182.424 74.6931C183.441 74.6931 184.331 74.4832 185.094 74.064C185.87 73.6309 186.513 73.0421 187.021 72.2977C187.53 71.5538 187.911 70.7009 188.166 69.7402C188.434 68.7656 188.567 67.7305 188.567 66.6343V66.1672C188.567 65.0848 188.434 64.063 188.166 63.1022C187.911 62.1277 187.523 61.2685 187.001 60.524C186.493 59.7663 185.85 59.1706 185.074 58.7375C184.31 58.305 183.414 58.0882 182.383 58.0882C181.366 58.0882 180.469 58.305 179.693 58.7375C178.93 59.1706 178.287 59.7663 177.765 60.524C177.257 61.2685 176.875 62.1277 176.621 63.1022C176.366 64.063 176.239 65.0848 176.239 66.1672Z" fill="white"/>
<path d="M205.654 74.6931C206.538 74.6931 207.354 74.5103 208.104 74.1453C208.853 73.7797 209.469 73.2792 209.951 72.6431C210.433 71.9932 210.707 71.2557 210.774 70.4304H214.308C214.241 71.7297 213.806 72.9407 213.003 74.064C212.213 75.1735 211.175 76.0736 209.891 76.7639C208.606 77.4403 207.194 77.7788 205.654 77.7788C204.021 77.7788 202.596 77.4876 201.377 76.9058C200.173 76.3239 199.169 75.5252 198.366 74.5103C197.576 73.4954 196.98 72.3317 196.579 71.0192C196.191 69.6929 195.997 68.2922 195.997 66.8171V65.9642C195.997 64.4891 196.191 63.0953 196.579 61.7828C196.98 60.4565 197.576 59.2859 198.366 58.271C199.169 57.2559 200.173 56.4575 201.377 55.8755C202.596 55.2936 204.021 55.0027 205.654 55.0027C207.354 55.0027 208.84 55.3545 210.112 56.0582C211.383 56.7484 212.38 57.6955 213.103 58.9001C213.839 60.0909 214.241 61.4443 214.308 62.9598H210.774C210.707 62.0533 210.453 61.2344 210.011 60.5038C209.583 59.7732 208.994 59.1913 208.244 58.7583C207.508 58.3113 206.645 58.0882 205.654 58.0882C204.516 58.0882 203.559 58.3183 202.783 58.7784C202.02 59.2248 201.411 59.8337 200.956 60.6053C200.514 61.363 200.193 62.209 199.992 63.1426C199.805 64.063 199.711 65.0035 199.711 65.9642V66.8171C199.711 67.7778 199.805 68.7253 199.992 69.6589C200.18 70.5925 200.494 71.4384 200.936 72.1962C201.391 72.9539 202 73.5634 202.763 74.023C203.539 74.47 204.503 74.6931 205.654 74.6931Z" fill="white"/>
<path d="M227.338 55.4087V77.3729H223.603V55.4087H227.338ZM234.626 55.4087V58.4538H216.456V55.4087H234.626Z" fill="white"/>
<path d="M271.369 47.8166V77.3729H267.514V51.024H253.098V77.3729H249.223V47.8166H271.369Z" fill="white"/>
<path d="M281.549 59.6307V85.8175H277.814V55.4087H281.228L281.549 59.6307ZM296.186 66.2081V66.6343C296.186 68.2311 295.998 69.7131 295.624 71.0798C295.249 72.4332 294.7 73.6107 293.978 74.6118C293.268 75.6135 292.391 76.3914 291.347 76.9461C290.303 77.5015 289.105 77.7788 287.753 77.7788C286.375 77.7788 285.156 77.5487 284.099 77.0886C283.041 76.6284 282.145 75.9583 281.408 75.0789C280.673 74.1995 280.083 73.1436 279.642 71.9119C279.214 70.6807 278.919 69.2933 278.758 67.7507V65.4769C278.919 63.8531 279.22 62.3987 279.662 61.1128C280.103 59.8274 280.686 58.7312 281.408 57.8241C282.145 56.9041 283.035 56.2071 284.079 55.7334C285.123 55.2463 286.328 55.0027 287.693 55.0027C289.058 55.0027 290.27 55.2733 291.327 55.8146C292.385 56.3425 293.275 57.1003 293.998 58.0882C294.72 59.076 295.263 60.2605 295.624 61.6404C295.998 63.0077 296.186 64.5301 296.186 66.2081ZM292.451 66.6343V66.2081C292.451 65.1119 292.338 64.0831 292.11 63.1224C291.883 62.1479 291.528 61.2956 291.046 60.5649C290.578 59.8205 289.975 59.2386 289.239 58.8188C288.503 58.3857 287.626 58.1695 286.609 58.1695C285.672 58.1695 284.855 58.3315 284.159 58.6568C283.477 58.9814 282.894 59.4214 282.412 59.9762C281.931 60.5177 281.536 61.1399 281.228 61.8434C280.933 62.5337 280.713 63.251 280.565 63.9955V69.2529C280.833 70.2004 281.208 71.0936 281.69 71.9326C282.172 72.7579 282.814 73.4279 283.617 73.9423C284.42 74.4429 285.431 74.6931 286.649 74.6931C287.653 74.6931 288.516 74.4832 289.239 74.064C289.975 73.6309 290.578 73.0421 291.046 72.2977C291.528 71.5538 291.883 70.7009 292.11 69.7402C292.338 68.7656 292.451 67.7305 292.451 66.6343Z" fill="white"/>
<path d="M299.94 66.6343V66.1672C299.94 64.5843 300.168 63.1155 300.623 61.7627C301.078 60.3954 301.734 59.2115 302.59 58.2099C303.447 57.195 304.485 56.4101 305.703 55.8552C306.921 55.2869 308.286 55.0027 309.799 55.0027C311.324 55.0027 312.696 55.2869 313.915 55.8552C315.146 56.4101 316.19 57.195 317.047 58.2099C317.917 59.2115 318.58 60.3954 319.034 61.7627C319.489 63.1155 319.717 64.5843 319.717 66.1672V66.6343C319.717 68.2178 319.489 69.686 319.034 71.0394C318.58 72.3928 317.917 73.5767 317.047 74.5916C316.19 75.5933 315.153 76.3781 313.934 76.9461C312.73 77.5015 311.364 77.7788 309.839 77.7788C308.313 77.7788 306.941 77.5015 305.723 76.9461C304.505 76.3781 303.461 75.5933 302.59 74.5916C301.734 73.5767 301.078 72.3928 300.623 71.0394C300.168 69.686 299.94 68.2178 299.94 66.6343ZM303.655 66.1672V66.6343C303.655 67.7305 303.782 68.7656 304.036 69.7402C304.291 70.7009 304.672 71.5538 305.18 72.2977C305.703 73.0421 306.352 73.6309 307.128 74.064C307.905 74.4832 308.808 74.6931 309.839 74.6931C310.856 74.6931 311.746 74.4832 312.509 74.064C313.285 73.6309 313.928 73.0421 314.436 72.2977C314.945 71.5538 315.327 70.7009 315.581 69.7402C315.849 68.7656 315.983 67.7305 315.983 66.6343V66.1672C315.983 65.0848 315.849 64.063 315.581 63.1022C315.327 62.1277 314.938 61.2685 314.416 60.524C313.908 59.7663 313.265 59.1706 312.489 58.7375C311.726 58.305 310.829 58.0882 309.799 58.0882C308.781 58.0882 307.885 58.305 307.108 58.7375C306.345 59.1706 305.703 59.7663 305.18 60.524C304.672 61.2685 304.291 62.1277 304.036 63.1022C303.782 64.063 303.655 65.0848 303.655 66.1672Z" fill="white"/>
<path d="M333.391 77.7788C331.878 77.7788 330.506 77.5216 329.274 77.0073C328.057 76.4796 327.006 75.7421 326.123 74.7946C325.252 73.8472 324.583 72.7244 324.115 71.4252C323.646 70.126 323.412 68.7051 323.412 67.1619V66.3096C323.412 64.5231 323.673 62.9333 324.195 61.5389C324.717 60.1319 325.426 58.9411 326.323 57.9665C327.22 56.992 328.237 56.2545 329.375 55.7537C330.513 55.253 331.691 55.0027 332.909 55.0027C334.461 55.0027 335.8 55.2733 336.924 55.8146C338.062 56.3559 338.992 57.1138 339.715 58.0882C340.438 59.0489 340.973 60.1861 341.321 61.4986C341.67 62.7978 341.844 64.2187 341.844 65.7612V67.4462H325.621V64.3813H338.129V64.097C338.076 63.1224 337.875 62.175 337.527 61.2552C337.192 60.3348 336.657 59.5765 335.92 58.9814C335.184 58.3857 334.18 58.0882 332.909 58.0882C332.065 58.0882 331.289 58.271 330.58 58.636C329.87 58.9883 329.261 59.516 328.753 60.2195C328.244 60.9236 327.849 61.7828 327.568 62.7978C327.287 63.8127 327.146 64.9833 327.146 66.3096V67.1619C327.146 68.204 327.287 69.1854 327.568 70.1052C327.863 71.0123 328.284 71.8104 328.833 72.5007C329.395 73.1909 330.071 73.7324 330.861 74.1245C331.664 74.5172 332.574 74.7133 333.592 74.7133C334.903 74.7133 336.014 74.4429 336.924 73.9014C337.835 73.3605 338.631 72.6362 339.314 71.7297L341.563 73.5363C341.094 74.2531 340.498 74.9371 339.776 75.5864C339.053 76.2357 338.163 76.7639 337.105 77.1699C336.061 77.5759 334.823 77.7788 333.391 77.7788Z" fill="white"/>
<path d="M350.216 55.4087V77.3729H346.502V55.4087H350.216ZM364.471 55.4087L354.172 67.9946H348.971L348.409 64.7059H352.665L359.954 55.4087H364.471ZM360.476 77.3729L352.485 67.426L354.874 64.7059L365.194 77.3729H360.476Z" fill="white"/>
<path d="M377.281 55.4087V77.3729H373.546V55.4087H377.281ZM384.569 55.4087V58.4538H366.399V55.4087H384.569Z" fill="white"/>
<path d="M31.9821 64.6696V50.3963C28.6925 48.8719 25.6313 47.0242 22.8443 44.8531V64.6696H31.9821ZM22.8443 83.147H13.7066V73.9083H4.56885V64.6696H13.7066V32.335H22.8443V38.9405C31.0683 46.1927 42.3534 50.812 54.8264 50.812C67.2998 50.812 78.5845 46.1927 86.8087 38.9405V32.335H95.946V64.6696H105.084V73.9083H95.946V83.147H86.8087V73.9083H22.8443V83.147ZM77.6708 50.3963V64.6696H86.8087V44.8531C84.0213 47.0242 80.9607 48.8719 77.6708 50.3963ZM73.1021 64.6696V52.2901C70.1778 53.3526 67.1167 54.1379 63.9642 54.6922V64.6696H73.1021ZM59.3956 64.6696V55.2465L54.8264 55.4313L50.2576 55.2465V64.6696H59.3956ZM45.6887 64.6696V54.6922C42.5362 54.1379 39.475 53.3526 36.551 52.2901V64.6696H45.6887Z" fill="white"/>
</svg>
